grf
version=1
nRows=12
nColumns=37
inDegrees=no
endheader
time	ground_force_1_vx	ground_force_1_vy	ground_force_1_vz	ground_force_1_px	ground_force_1_py	ground_force_1_pz	ground_moment_1_mx	ground_moment_1_my	ground_moment_1_mz	ground_force_2_vx	ground_force_2_vy	ground_force_2_vz	ground_force_2_px	ground_force_2_py	ground_force_2_pz	ground_moment_2_mx	ground_moment_2_my	ground_moment_2_mz	ground_force_3_vx	ground_force_3_vy	ground_force_3_vz	ground_force_3_px	ground_force_3_py	ground_force_3_pz	ground_moment_3_mx	ground_moment_3_my	ground_moment_3_mz	ground_force_4_vx	ground_force_4_vy	ground_force_4_vz	ground_force_4_px	ground_force_4_py	ground_force_4_pz	ground_moment_4_mx	ground_moment_4_my	ground_moment_4_mz
      0.00000000	      0.00000000	     -0.00000000	      0.00000000	      0.00000000	      0.00000000	      0.00000000	      0.00000000	      0.00000000	      0.00000000	      1.21235669	     44.31608963	   -390.34521484	   -299.72463531	  -1095.61275889	      0.00000000	      0.00000000	      0.00000000	   2340.28880307	     -3.61648293	    -45.90912978	   -391.67636108	   -299.57501834	   -689.08305174	      0.00000000	      0.00000000	     -0.00000000	  -3912.08845522	      0.00000000	     -0.00000000	      0.00000000	      0.00000000	      0.00000000	      0.00000000	      0.00000000	      0.00000000	      0.00000000
      0.01000000	      0.00000000	     -0.00000000	      0.00000000	      0.00000000	      0.00000000	      0.00000000	      0.00000000	      0.00000000	      0.00000000	      0.80289459	     44.51058960	   -392.66397095	   -299.06431282	  -1097.12574411	      0.00000000	      0.00000000	      0.00000000	   2314.25903292	     -3.74195165	    -45.75268522	   -389.93899536	   -299.41208453	   -689.68446717	      0.00000000	      0.00000000	     -0.00000000	  -3867.09543692	      0.00000000	     -0.00000000	      0.00000000	      0.00000000	      0.00000000	      0.00000000	      0.00000000	      0.00000000	      0.00000000
      0.02000000	      0.00000000	     -0.00000000	      0.00000000	      0.00000000	      0.00000000	      0.00000000	      0.00000000	      0.00000000	      0.00000000	      1.15973663	     44.43979263	   -391.89221191	   -298.71086189	  -1096.73598835	      0.00000000	      0.00000000	      0.00000000	   2473.00236786	     -3.45972462	    -45.87498444	   -390.42272949	   -298.86759277	   -689.67478670	      0.00000000	     -0.00000000	     -0.00000000	  -3961.55838373	      0.00000000	     -0.00000000	      0.00000000	      0.00000000	      0.00000000	      0.00000000	      0.00000000	      0.00000000	      0.00000000
      0.03000000	      0.00000000	     -0.00000000	      0.00000000	      0.00000000	      0.00000000	      0.00000000	      0.00000000	      0.00000000	      0.00000000	      0.55455375	     45.08191681	   -393.72882080	   -298.89663801	  -1097.42149930	      0.00000000	      0.00000000	      0.00000000	   2238.70301169	     -3.92129705	    -46.10529675	   -390.49334717	   -299.73566936	   -689.46092584	      0.00000000	      0.00000000	     -0.00000000	  -3945.36924601	      0.00000000	     -0.00000000	      0.00000000	      0.00000000	      0.00000000	      0.00000000	      0.00000000	      0.00000000	      0.00000000
      0.04000000	      0.00000000	     -0.00000000	      0.00000000	      0.00000000	      0.00000000	      0.00000000	      0.00000000	      0.00000000	      0.00000000	      0.80289459	     45.02885437	   -391.46939087	   -297.71664564	  -1096.17037008	      0.00000000	      0.00000000	      0.00000000	   2401.30891472	     -3.90431018	    -45.85682644	   -389.79043579	   -298.65824991	   -689.68712792	      0.00000000	      0.00000000	     -0.00000000	  -3964.97608754	      0.00000000	     -0.00000000	      0.00000000	      0.00000000	      0.00000000	      0.00000000	      0.00000000	      0.00000000	      0.00000000
      0.05000000	      0.00000000	     -0.00000000	      0.00000000	      0.00000000	      0.00000000	      0.00000000	      0.00000000	      0.00000000	      0.00000000	      0.48195431	     44.77878952	   -394.00668335	   -298.45783909	  -1097.19830900	      0.00000000	      0.00000000	      0.00000000	   2387.85407475	     -4.61224287	    -45.55762060	   -391.81851196	   -298.49799701	   -688.71256001	      0.00000000	      0.00000000	     -0.00000000	  -3817.26195708	      0.00000000	     -0.00000000	      0.00000000	      0.00000000	      0.00000000	      0.00000000	      0.00000000	      0.00000000	      0.00000000
      0.06000000	      0.00000000	     -0.00000000	      0.00000000	      0.00000000	      0.00000000	      0.00000000	      0.00000000	      0.00000000	      0.00000000	      0.30338249	     44.92172241	   -393.30160522	   -298.75272149	  -1095.79658173	      0.00000000	      0.00000000	      0.00000000	   2414.73223907	     -4.25777455	    -45.89215814	   -390.00372314	   -299.18638270	   -690.06974350	      0.00000000	      0.00000000	     -0.00000000	  -3926.83004513	      0.00000000	     -0.00000000	      0.00000000	      0.00000000	      0.00000000	      0.00000000	      0.00000000	      0.00000000	      0.00000000
      0.07000000	      0.00000000	     -0.00000000	      0.00000000	      0.00000000	      0.00000000	      0.00000000	      0.00000000	      0.00000000	      0.00000000	      0.12482969	     45.59917831	   -395.70321655	   -298.63334188	  -1097.37974279	      0.00000000	      0.00000000	      0.00000000	   2433.47512911	     -4.04520819	    -46.03322947	   -392.65591431	   -298.68602996	   -688.37228906	      0.00000000	      0.00000000	     -0.00000000	  -4020.83607111	      0.00000000	     -0.00000000	      0.00000000	      0.00000000	      0.00000000	      0.00000000	      0.00000000	      0.00000000	      0.00000000
      0.08000000	      0.00000000	     -0.00000000	      0.00000000	      0.00000000	      0.00000000	      0.00000000	      0.00000000	      0.00000000	      0.00000000	      0.67819583	     45.56336594	   -396.83374023	   -297.90041857	  -1097.66474554	      0.00000000	      0.00000000	      0.00000000	   2557.66766898	     -3.84992977	    -45.87416424	   -394.12258911	   -298.75133998	   -688.27026907	      0.00000000	      0.00000000	     -0.00000000	  -3886.84857677	      0.00000000	     -0.00000000	      0.00000000	      0.00000000	      0.00000000	      0.00000000	      0.00000000	      0.00000000	      0.00000000
      0.09000000	      0.00000000	     -0.00000000	      0.00000000	      0.00000000	      0.00000000	      0.00000000	      0.00000000	      0.00000000	      0.00000000	      0.65981102	     45.45564270	   -396.33782959	   -297.90296752	  -1096.78605916	      0.00000000	      0.00000000	      0.00000000	   2442.43927671	     -4.04548807	    -45.85648692	   -393.35531616	   -298.83470632	   -689.20089925	      0.00000000	      0.00000000	     -0.00000000	  -4006.85443772	      0.00000000	     -0.00000000	      0.00000000	      0.00000000	      0.00000000	      0.00000000	      0.00000000	      0.00000000	      0.00000000
      0.10000000	      0.00000000	     -0.00000000	      0.00000000	      0.00000000	      0.00000000	      0.00000000	      0.00000000	      0.00000000	      0.00000000	      0.51765698	     45.84820557	   -397.89440918	   -298.10461318	  -1097.21126898	      0.00000000	      0.00000000	      0.00000000	   2473.64656664	     -3.97444551	    -45.53807033	   -393.49389648	   -298.67834340	   -688.86770611	      0.00000000	      0.00000000	     -0.00000000	  -4012.52917000	      0.00000000	     -0.00000000	      0.00000000	      0.00000000	      0.00000000	      0.00000000	      0.00000000	      0.00000000	      0.00000000
      0.11000000	      0.00000000	     -0.00000000	      0.00000000	      0.00000000	      0.00000000	      0.00000000	      0.00000000	      0.00000000	      0.00000000	      0.60694098	     45.84806061	   -398.38085938	   -298.11916890	  -1097.45962416	      0.00000000	      0.00000000	      0.00000000	   2590.80271023	     -4.29442044	    -45.84030877	   -392.23480225	   -299.31326390	   -689.98242997	      0.00000000	      0.00000000	     -0.00000000	  -4036.86697121	      0.00000000	     -0.00000000	      0.00000000	      0.00000000	      0.00000000	      0.00000000	      0.00000000	      0.00000000	      0.00000000
